# xmcd CD database file
#
# Track frame offsets:
#	150
#	6145
#	16877
#	27593
#	49917
#	75741
#	77427
#	97105
#	114723
#	137002
#	140050
#	152700
#	171974
#	189487
#	214039
#	238552
#	261170
#
# Disc length: 3748 seconds
#
# Revision: 0
# Processed by: cddbd v1.5.1PL2 Copyright (c) Steve Scherf et al.
# Submitted via: CDex 1.51
#
DISCID=e50ea211
DTITLE=the rh factor - Distractions
DYEAR=2006
DGENRE=Jazz
TTITLE0=Roy Hargrove and the RH Factor - Distractions (Intro)
TTITLE1=Roy Hargrove and the RH Factor - Crazy Race
TTITLE2=Roy Hargrove and the RH Factor - Kansas City Funk
TTITLE3=Roy Hargrove and the RH Factor - On The One
TTITLE4=Roy Hargrove and the RH Factor - Family
TTITLE5=Roy Hargrove and the RH Factor - Distractions 2
TTITLE6=Roy Hargrove and the RH Factor - A Place
TTITLE7=Roy Hargrove and the RH Factor - Hold On
TTITLE8=Roy Hargrove and the RH Factor - Bullshit
TTITLE9=Roy Hargrove and the RH Factor - Distractions 3
TTITLE10=Roy Hargrove and the RH Factor - Can't Stop
TTITLE11=Roy Hargrove and the RH Factor - Distractions 4
TTITLE12=Roy Hargrove - Nothing Serious
TTITLE13=Roy Hargrove - A Day In Vienna
TTITLE14=Roy Hargrove - Trust
TTITLE15=Roy Hargrove - Camaraderie
TTITLE16=Roy Hargrove - Devil Eyes
EXTD=YEAR: 2006
EXTT0=
EXTT1=
EXTT2=
EXTT3=
EXTT4=
EXTT5=
EXTT6=
EXTT7=
EXTT8=
EXTT9=
EXTT10=
EXTT11=
EXTT12=
EXTT13=
EXTT14=
EXTT15=
EXTT16=
PLAYORDER=
